<mxfile host="Electron" modified="2023-08-11T13:15:03.091Z" agent="Mozilla/5.0 (Windows NT 10.0; Win64; x64) AppleWebKit/537.36 (KHTML, like Gecko) draw.io/21.6.8 Chrome/114.0.5735.289 Electron/25.5.0 Safari/537.36" etag="Bbb-aOB0_-RbMqH4wveq" version="21.6.8" type="device">
  <diagram name="Page-1" id="On6yJk_Hg7oKFl7p0mdY">
    <mxGraphModel dx="1036" dy="719" grid="1" gridSize="10" guides="1" tooltips="1" connect="1" arrows="1" fold="1" page="1" pageScale="1" pageWidth="850" pageHeight="1100" math="0" shadow="0">
      <root>
        <mxCell id="0" />
        <mxCell id="1" parent="0" />
        <mxCell id="uLg59qGG4U38qY8t5iAr-1" value="" style="whiteSpace=wrap;html=1;strokeColor=none;fillColor=#757373;labelBackgroundColor=none;shadow=1;fontFamily=Google Sans;fontSource=https%3A%2F%2Ffonts.googleapis.com%2Fcss%3Ffamily%3DGoogle%2BSans;" parent="1" vertex="1">
          <mxGeometry x="110" y="468.75" width="490" height="201.25" as="geometry" />
        </mxCell>
        <mxCell id="uLg59qGG4U38qY8t5iAr-44" value="&lt;font color=&quot;#ffffff&quot; data-font-src=&quot;https://fonts.googleapis.com/css?family=Google+Sans&quot; style=&quot;font-size: 6px;&quot;&gt;&lt;b style=&quot;&quot;&gt;node1&lt;/b&gt;&lt;/font&gt;" style="text;strokeColor=none;align=center;fillColor=none;html=1;verticalAlign=middle;whiteSpace=wrap;rounded=0;rotation=0;fontFamily=Google Sans;fontSource=https%3A%2F%2Ffonts.googleapis.com%2Fcss%3Ffamily%3DGoogle%2BSans;" parent="1" vertex="1">
          <mxGeometry x="119.4" y="649" width="36" height="4" as="geometry" />
        </mxCell>
        <mxCell id="uLg59qGG4U38qY8t5iAr-86" value="&lt;font color=&quot;#ffffff&quot; data-font-src=&quot;https://fonts.googleapis.com/css?family=Google+Sans&quot; style=&quot;font-size: 6px;&quot;&gt;&lt;b style=&quot;&quot;&gt;client1&lt;/b&gt;&lt;/font&gt;" style="text;strokeColor=none;align=center;fillColor=none;html=1;verticalAlign=middle;whiteSpace=wrap;rounded=0;rotation=0;fontFamily=Google Sans;fontSource=https%3A%2F%2Ffonts.googleapis.com%2Fcss%3Ffamily%3DGoogle%2BSans;" parent="1" vertex="1">
          <mxGeometry x="181.7" y="639" width="36" height="4" as="geometry" />
        </mxCell>
        <mxCell id="uLg59qGG4U38qY8t5iAr-94" value="" style="sketch=0;pointerEvents=1;shadow=0;dashed=0;html=1;strokeColor=none;fillColor=#FFFFFF;aspect=fixed;labelPosition=center;verticalLabelPosition=bottom;verticalAlign=top;align=center;outlineConnect=0;shape=mxgraph.vvd.user_group;fontFamily=Google Sans;fontSource=https%3A%2F%2Ffonts.googleapis.com%2Fcss%3Ffamily%3DGoogle%2BSans;" parent="1" vertex="1">
          <mxGeometry x="190" y="611.0000000000001" width="19.4" height="27.33" as="geometry" />
        </mxCell>
        <mxCell id="4zfVuzfaXlXtFDiJQvgs-2" value="" style="whiteSpace=wrap;html=1;rounded=1;fontFamily=Google Sans;fontSource=https%3A%2F%2Ffonts.googleapis.com%2Fcss%3Ffamily%3DGoogle%2BSans;" parent="1" vertex="1">
          <mxGeometry x="126" y="580" width="45" height="9.67" as="geometry" />
        </mxCell>
        <mxCell id="4zfVuzfaXlXtFDiJQvgs-95" style="edgeStyle=none;rounded=0;orthogonalLoop=1;jettySize=auto;html=1;exitX=0.5;exitY=0;exitDx=0;exitDy=0;entryX=0.066;entryY=0.981;entryDx=0;entryDy=0;entryPerimeter=0;endArrow=none;endFill=0;fontFamily=Google Sans;fontSource=https%3A%2F%2Ffonts.googleapis.com%2Fcss%3Ffamily%3DGoogle%2BSans;" parent="1" source="4zfVuzfaXlXtFDiJQvgs-3" target="4zfVuzfaXlXtFDiJQvgs-92" edge="1">
          <mxGeometry relative="1" as="geometry" />
        </mxCell>
        <mxCell id="4zfVuzfaXlXtFDiJQvgs-3" value="" style="ellipse;whiteSpace=wrap;html=1;fontFamily=Google Sans;fontSource=https%3A%2F%2Ffonts.googleapis.com%2Fcss%3Ffamily%3DGoogle%2BSans;" parent="1" vertex="1">
          <mxGeometry x="160" y="520" width="40" height="40" as="geometry" />
        </mxCell>
        <mxCell id="4zfVuzfaXlXtFDiJQvgs-8" value="" style="whiteSpace=wrap;html=1;rounded=1;fontFamily=Google Sans;fontSource=https%3A%2F%2Ffonts.googleapis.com%2Fcss%3Ffamily%3DGoogle%2BSans;" parent="1" vertex="1">
          <mxGeometry x="191" y="580" width="45" height="9.67" as="geometry" />
        </mxCell>
        <mxCell id="4zfVuzfaXlXtFDiJQvgs-11" value="&lt;font style=&quot;font-size: 5px;&quot; data-font-src=&quot;https://fonts.googleapis.com/css?family=Google+Sans&quot;&gt;192.168.1.0/24&lt;/font&gt;" style="text;strokeColor=none;align=center;fillColor=none;html=1;verticalAlign=middle;whiteSpace=wrap;rounded=0;fontSize=5;fontFamily=Google Sans;fontSource=https%3A%2F%2Ffonts.googleapis.com%2Fcss%3Ffamily%3DGoogle%2BSans;" parent="1" vertex="1">
          <mxGeometry x="124" y="580" width="51" height="10" as="geometry" />
        </mxCell>
        <mxCell id="4zfVuzfaXlXtFDiJQvgs-12" value="&lt;font style=&quot;font-size: 5px;&quot; data-font-src=&quot;https://fonts.googleapis.com/css?family=Google+Sans&quot;&gt;192.168.2.0/24&lt;/font&gt;" style="text;strokeColor=none;align=center;fillColor=none;html=1;verticalAlign=middle;whiteSpace=wrap;rounded=0;fontSize=5;fontFamily=Google Sans;fontSource=https%3A%2F%2Ffonts.googleapis.com%2Fcss%3Ffamily%3DGoogle%2BSans;" parent="1" vertex="1">
          <mxGeometry x="189" y="580" width="52" height="10.16" as="geometry" />
        </mxCell>
        <mxCell id="4zfVuzfaXlXtFDiJQvgs-14" value="" style="endArrow=none;html=1;rounded=0;fontFamily=Google Sans;fontSource=https%3A%2F%2Ffonts.googleapis.com%2Fcss%3Ffamily%3DGoogle%2BSans;" parent="1" source="uLg59qGG4U38qY8t5iAr-17" edge="1">
          <mxGeometry width="50" height="50" relative="1" as="geometry">
            <mxPoint x="138" y="600" as="sourcePoint" />
            <mxPoint x="137.96" y="590" as="targetPoint" />
          </mxGeometry>
        </mxCell>
        <mxCell id="uLg59qGG4U38qY8t5iAr-17" value="" style="fontColor=#0066CC;verticalAlign=top;verticalLabelPosition=bottom;labelPosition=center;align=center;html=1;outlineConnect=0;fillColor=#CCCCCC;strokeColor=#6881B3;gradientColor=none;gradientDirection=north;strokeWidth=2;shape=mxgraph.networks.server;fontFamily=Google Sans;fontSource=https%3A%2F%2Ffonts.googleapis.com%2Fcss%3Ffamily%3DGoogle%2BSans;" parent="1" vertex="1">
          <mxGeometry x="123.00000000000003" y="609" width="30" height="40" as="geometry" />
        </mxCell>
        <mxCell id="uLg59qGG4U38qY8t5iAr-18" value="" style="sketch=0;html=1;dashed=0;whitespace=wrap;fillColor=#2875E2;strokeColor=#ffffff;points=[[0.005,0.63,0],[0.1,0.2,0],[0.9,0.2,0],[0.5,0,0],[0.995,0.63,0],[0.72,0.99,0],[0.5,1,0],[0.28,0.99,0]];verticalLabelPosition=bottom;align=center;verticalAlign=top;shape=mxgraph.kubernetes.icon;prIcon=node;fontFamily=Google Sans;fontSource=https%3A%2F%2Ffonts.googleapis.com%2Fcss%3Ffamily%3DGoogle%2BSans;" parent="1" vertex="1">
          <mxGeometry x="128.20000000000002" y="630" width="19.6" height="19" as="geometry" />
        </mxCell>
        <mxCell id="4zfVuzfaXlXtFDiJQvgs-15" value="" style="endArrow=none;html=1;rounded=0;fontFamily=Google Sans;fontSource=https%3A%2F%2Ffonts.googleapis.com%2Fcss%3Ffamily%3DGoogle%2BSans;" parent="1" source="uLg59qGG4U38qY8t5iAr-94" edge="1">
          <mxGeometry width="50" height="50" relative="1" as="geometry">
            <mxPoint x="200" y="619.67" as="sourcePoint" />
            <mxPoint x="200" y="589.67" as="targetPoint" />
          </mxGeometry>
        </mxCell>
        <mxCell id="4zfVuzfaXlXtFDiJQvgs-17" value="&lt;font color=&quot;#ffffff&quot;&gt;.1&lt;/font&gt;" style="text;strokeColor=none;align=center;fillColor=none;html=1;verticalAlign=middle;whiteSpace=wrap;rounded=0;fontSize=5;fontFamily=Google Sans;fontSource=https%3A%2F%2Ffonts.googleapis.com%2Fcss%3Ffamily%3DGoogle%2BSans;" parent="1" vertex="1">
          <mxGeometry x="125" y="588" width="20" height="10" as="geometry" />
        </mxCell>
        <mxCell id="4zfVuzfaXlXtFDiJQvgs-18" value="&lt;font color=&quot;#ffffff&quot;&gt;.11&lt;/font&gt;" style="text;strokeColor=none;align=center;fillColor=none;html=1;verticalAlign=middle;whiteSpace=wrap;rounded=0;fontSize=5;fontFamily=Google Sans;fontSource=https%3A%2F%2Ffonts.googleapis.com%2Fcss%3Ffamily%3DGoogle%2BSans;" parent="1" vertex="1">
          <mxGeometry x="125" y="601" width="20" height="10" as="geometry" />
        </mxCell>
        <mxCell id="4zfVuzfaXlXtFDiJQvgs-19" value="&lt;font color=&quot;#ffffff&quot;&gt;.11&lt;/font&gt;" style="text;strokeColor=none;align=center;fillColor=none;html=1;verticalAlign=middle;whiteSpace=wrap;rounded=0;fontSize=5;fontFamily=Google Sans;fontSource=https%3A%2F%2Ffonts.googleapis.com%2Fcss%3Ffamily%3DGoogle%2BSans;" parent="1" vertex="1">
          <mxGeometry x="187.4" y="603" width="20" height="10" as="geometry" />
        </mxCell>
        <mxCell id="4zfVuzfaXlXtFDiJQvgs-20" value="&lt;font color=&quot;#ffffff&quot;&gt;.1&lt;/font&gt;" style="text;strokeColor=none;align=center;fillColor=none;html=1;verticalAlign=middle;whiteSpace=wrap;rounded=0;fontSize=5;fontFamily=Google Sans;fontSource=https%3A%2F%2Ffonts.googleapis.com%2Fcss%3Ffamily%3DGoogle%2BSans;" parent="1" vertex="1">
          <mxGeometry x="187.4" y="588" width="20" height="10" as="geometry" />
        </mxCell>
        <mxCell id="4zfVuzfaXlXtFDiJQvgs-21" value="" style="endArrow=none;html=1;rounded=0;entryX=0;entryY=1;entryDx=0;entryDy=0;exitX=0.75;exitY=0;exitDx=0;exitDy=0;fontFamily=Google Sans;fontSource=https%3A%2F%2Ffonts.googleapis.com%2Fcss%3Ffamily%3DGoogle%2BSans;" parent="1" source="4zfVuzfaXlXtFDiJQvgs-2" target="4zfVuzfaXlXtFDiJQvgs-3" edge="1">
          <mxGeometry width="50" height="50" relative="1" as="geometry">
            <mxPoint x="140" y="620" as="sourcePoint" />
            <mxPoint x="190" y="570" as="targetPoint" />
          </mxGeometry>
        </mxCell>
        <mxCell id="4zfVuzfaXlXtFDiJQvgs-22" value="" style="endArrow=none;html=1;rounded=0;entryX=1;entryY=1;entryDx=0;entryDy=0;exitX=0.25;exitY=0;exitDx=0;exitDy=0;fontFamily=Google Sans;fontSource=https%3A%2F%2Ffonts.googleapis.com%2Fcss%3Ffamily%3DGoogle%2BSans;" parent="1" source="4zfVuzfaXlXtFDiJQvgs-8" target="4zfVuzfaXlXtFDiJQvgs-3" edge="1">
          <mxGeometry width="50" height="50" relative="1" as="geometry">
            <mxPoint x="140" y="620" as="sourcePoint" />
            <mxPoint x="190" y="570" as="targetPoint" />
          </mxGeometry>
        </mxCell>
        <mxCell id="4zfVuzfaXlXtFDiJQvgs-23" value="&lt;font size=&quot;1&quot; style=&quot;&quot; data-font-src=&quot;https://fonts.googleapis.com/css?family=Google+Sans&quot;&gt;&lt;b style=&quot;font-size: 8px;&quot;&gt;vrf1&lt;/b&gt;&lt;/font&gt;" style="text;strokeColor=none;align=center;fillColor=none;html=1;verticalAlign=middle;whiteSpace=wrap;rounded=0;fontSize=5;fontFamily=Google Sans;fontSource=https%3A%2F%2Ffonts.googleapis.com%2Fcss%3Ffamily%3DGoogle%2BSans;" parent="1" vertex="1">
          <mxGeometry x="154.5" y="535" width="51" height="10" as="geometry" />
        </mxCell>
        <mxCell id="4zfVuzfaXlXtFDiJQvgs-24" value="&lt;font color=&quot;#0000ff&quot; style=&quot;font-size: 7px;&quot; data-font-src=&quot;https://fonts.googleapis.com/css?family=Google+Sans&quot;&gt;leaf1&lt;/font&gt;" style="text;strokeColor=none;align=center;fillColor=none;html=1;verticalAlign=middle;whiteSpace=wrap;rounded=0;fontSize=5;fontFamily=Google Sans;fontSource=https%3A%2F%2Ffonts.googleapis.com%2Fcss%3Ffamily%3DGoogle%2BSans;" parent="1" vertex="1">
          <mxGeometry x="154.5" y="520.58" width="51" height="10" as="geometry" />
        </mxCell>
        <mxCell id="4zfVuzfaXlXtFDiJQvgs-25" value="&lt;font color=&quot;#ffffff&quot; data-font-src=&quot;https://fonts.googleapis.com/css?family=Google+Sans&quot; style=&quot;font-size: 6px;&quot;&gt;&lt;b style=&quot;&quot;&gt;node2&lt;/b&gt;&lt;/font&gt;" style="text;strokeColor=none;align=center;fillColor=none;html=1;verticalAlign=middle;whiteSpace=wrap;rounded=0;rotation=0;fontFamily=Google Sans;fontSource=https%3A%2F%2Ffonts.googleapis.com%2Fcss%3Ffamily%3DGoogle%2BSans;" parent="1" vertex="1">
          <mxGeometry x="246" y="649" width="36" height="4" as="geometry" />
        </mxCell>
        <mxCell id="4zfVuzfaXlXtFDiJQvgs-26" value="&lt;font color=&quot;#ffffff&quot; data-font-src=&quot;https://fonts.googleapis.com/css?family=Google+Sans&quot; style=&quot;font-size: 6px;&quot;&gt;&lt;b style=&quot;&quot;&gt;client2&lt;/b&gt;&lt;/font&gt;" style="text;strokeColor=none;align=center;fillColor=none;html=1;verticalAlign=middle;whiteSpace=wrap;rounded=0;rotation=0;fontFamily=Google Sans;fontSource=https%3A%2F%2Ffonts.googleapis.com%2Fcss%3Ffamily%3DGoogle%2BSans;" parent="1" vertex="1">
          <mxGeometry x="308.3" y="638.33" width="36" height="4" as="geometry" />
        </mxCell>
        <mxCell id="4zfVuzfaXlXtFDiJQvgs-27" value="" style="sketch=0;pointerEvents=1;shadow=0;dashed=0;html=1;strokeColor=none;fillColor=#FFFFFF;aspect=fixed;labelPosition=center;verticalLabelPosition=bottom;verticalAlign=top;align=center;outlineConnect=0;shape=mxgraph.vvd.user_group;fontFamily=Google Sans;fontSource=https%3A%2F%2Ffonts.googleapis.com%2Fcss%3Ffamily%3DGoogle%2BSans;" parent="1" vertex="1">
          <mxGeometry x="316.6" y="611.0000000000001" width="19.4" height="27.33" as="geometry" />
        </mxCell>
        <mxCell id="4zfVuzfaXlXtFDiJQvgs-28" value="" style="whiteSpace=wrap;html=1;rounded=1;fontFamily=Google Sans;fontSource=https%3A%2F%2Ffonts.googleapis.com%2Fcss%3Ffamily%3DGoogle%2BSans;" parent="1" vertex="1">
          <mxGeometry x="252.6" y="580" width="45" height="9.67" as="geometry" />
        </mxCell>
        <mxCell id="4zfVuzfaXlXtFDiJQvgs-29" value="" style="ellipse;whiteSpace=wrap;html=1;fontFamily=Google Sans;fontSource=https%3A%2F%2Ffonts.googleapis.com%2Fcss%3Ffamily%3DGoogle%2BSans;" parent="1" vertex="1">
          <mxGeometry x="286.6" y="520" width="40" height="40" as="geometry" />
        </mxCell>
        <mxCell id="4zfVuzfaXlXtFDiJQvgs-30" value="" style="whiteSpace=wrap;html=1;rounded=1;fontFamily=Google Sans;fontSource=https%3A%2F%2Ffonts.googleapis.com%2Fcss%3Ffamily%3DGoogle%2BSans;" parent="1" vertex="1">
          <mxGeometry x="317.6" y="580" width="45" height="9.67" as="geometry" />
        </mxCell>
        <mxCell id="4zfVuzfaXlXtFDiJQvgs-31" value="&lt;font style=&quot;font-size: 5px;&quot; data-font-src=&quot;https://fonts.googleapis.com/css?family=Google+Sans&quot;&gt;192.168.1.0/24&lt;/font&gt;" style="text;strokeColor=none;align=center;fillColor=none;html=1;verticalAlign=middle;whiteSpace=wrap;rounded=0;fontSize=5;fontFamily=Google Sans;fontSource=https%3A%2F%2Ffonts.googleapis.com%2Fcss%3Ffamily%3DGoogle%2BSans;" parent="1" vertex="1">
          <mxGeometry x="250.6" y="580" width="51" height="10" as="geometry" />
        </mxCell>
        <mxCell id="4zfVuzfaXlXtFDiJQvgs-32" value="&lt;font style=&quot;font-size: 5px;&quot; data-font-src=&quot;https://fonts.googleapis.com/css?family=Google+Sans&quot;&gt;192.168.2.0/24&lt;/font&gt;" style="text;strokeColor=none;align=center;fillColor=none;html=1;verticalAlign=middle;whiteSpace=wrap;rounded=0;fontSize=5;fontFamily=Google Sans;fontSource=https%3A%2F%2Ffonts.googleapis.com%2Fcss%3Ffamily%3DGoogle%2BSans;" parent="1" vertex="1">
          <mxGeometry x="315.6" y="580" width="52" height="10.16" as="geometry" />
        </mxCell>
        <mxCell id="4zfVuzfaXlXtFDiJQvgs-33" value="" style="endArrow=none;html=1;rounded=0;fontFamily=Google Sans;fontSource=https%3A%2F%2Ffonts.googleapis.com%2Fcss%3Ffamily%3DGoogle%2BSans;" parent="1" source="4zfVuzfaXlXtFDiJQvgs-34" edge="1">
          <mxGeometry width="50" height="50" relative="1" as="geometry">
            <mxPoint x="264.6" y="600" as="sourcePoint" />
            <mxPoint x="264.56000000000006" y="590" as="targetPoint" />
          </mxGeometry>
        </mxCell>
        <mxCell id="4zfVuzfaXlXtFDiJQvgs-34" value="" style="fontColor=#0066CC;verticalAlign=top;verticalLabelPosition=bottom;labelPosition=center;align=center;html=1;outlineConnect=0;fillColor=#CCCCCC;strokeColor=#6881B3;gradientColor=none;gradientDirection=north;strokeWidth=2;shape=mxgraph.networks.server;fontFamily=Google Sans;fontSource=https%3A%2F%2Ffonts.googleapis.com%2Fcss%3Ffamily%3DGoogle%2BSans;" parent="1" vertex="1">
          <mxGeometry x="249.60000000000002" y="609" width="30" height="40" as="geometry" />
        </mxCell>
        <mxCell id="4zfVuzfaXlXtFDiJQvgs-35" value="" style="sketch=0;html=1;dashed=0;whitespace=wrap;fillColor=#2875E2;strokeColor=#ffffff;points=[[0.005,0.63,0],[0.1,0.2,0],[0.9,0.2,0],[0.5,0,0],[0.995,0.63,0],[0.72,0.99,0],[0.5,1,0],[0.28,0.99,0]];verticalLabelPosition=bottom;align=center;verticalAlign=top;shape=mxgraph.kubernetes.icon;prIcon=node;fontFamily=Google Sans;fontSource=https%3A%2F%2Ffonts.googleapis.com%2Fcss%3Ffamily%3DGoogle%2BSans;" parent="1" vertex="1">
          <mxGeometry x="254.8" y="630" width="19.6" height="19" as="geometry" />
        </mxCell>
        <mxCell id="4zfVuzfaXlXtFDiJQvgs-36" value="" style="endArrow=none;html=1;rounded=0;fontFamily=Google Sans;fontSource=https%3A%2F%2Ffonts.googleapis.com%2Fcss%3Ffamily%3DGoogle%2BSans;" parent="1" source="4zfVuzfaXlXtFDiJQvgs-27" edge="1">
          <mxGeometry width="50" height="50" relative="1" as="geometry">
            <mxPoint x="326.6" y="619.67" as="sourcePoint" />
            <mxPoint x="326.6" y="589.67" as="targetPoint" />
          </mxGeometry>
        </mxCell>
        <mxCell id="4zfVuzfaXlXtFDiJQvgs-37" value="&lt;font color=&quot;#ffffff&quot;&gt;.1&lt;/font&gt;" style="text;strokeColor=none;align=center;fillColor=none;html=1;verticalAlign=middle;whiteSpace=wrap;rounded=0;fontSize=5;fontFamily=Google Sans;fontSource=https%3A%2F%2Ffonts.googleapis.com%2Fcss%3Ffamily%3DGoogle%2BSans;" parent="1" vertex="1">
          <mxGeometry x="251.6" y="588" width="20" height="10" as="geometry" />
        </mxCell>
        <mxCell id="4zfVuzfaXlXtFDiJQvgs-38" value="&lt;font color=&quot;#ffffff&quot;&gt;.12&lt;/font&gt;" style="text;strokeColor=none;align=center;fillColor=none;html=1;verticalAlign=middle;whiteSpace=wrap;rounded=0;fontSize=5;fontFamily=Google Sans;fontSource=https%3A%2F%2Ffonts.googleapis.com%2Fcss%3Ffamily%3DGoogle%2BSans;" parent="1" vertex="1">
          <mxGeometry x="251.6" y="601" width="20" height="10" as="geometry" />
        </mxCell>
        <mxCell id="4zfVuzfaXlXtFDiJQvgs-39" value="&lt;font color=&quot;#ffffff&quot;&gt;.12&lt;/font&gt;" style="text;strokeColor=none;align=center;fillColor=none;html=1;verticalAlign=middle;whiteSpace=wrap;rounded=0;fontSize=5;fontFamily=Google Sans;fontSource=https%3A%2F%2Ffonts.googleapis.com%2Fcss%3Ffamily%3DGoogle%2BSans;" parent="1" vertex="1">
          <mxGeometry x="313" y="603" width="20" height="10" as="geometry" />
        </mxCell>
        <mxCell id="4zfVuzfaXlXtFDiJQvgs-40" value="&lt;font color=&quot;#ffffff&quot;&gt;.1&lt;/font&gt;" style="text;strokeColor=none;align=center;fillColor=none;html=1;verticalAlign=middle;whiteSpace=wrap;rounded=0;fontSize=5;fontFamily=Google Sans;fontSource=https%3A%2F%2Ffonts.googleapis.com%2Fcss%3Ffamily%3DGoogle%2BSans;" parent="1" vertex="1">
          <mxGeometry x="314" y="588" width="20" height="10" as="geometry" />
        </mxCell>
        <mxCell id="4zfVuzfaXlXtFDiJQvgs-41" value="" style="endArrow=none;html=1;rounded=0;entryX=0;entryY=1;entryDx=0;entryDy=0;exitX=0.75;exitY=0;exitDx=0;exitDy=0;fontFamily=Google Sans;fontSource=https%3A%2F%2Ffonts.googleapis.com%2Fcss%3Ffamily%3DGoogle%2BSans;" parent="1" source="4zfVuzfaXlXtFDiJQvgs-28" target="4zfVuzfaXlXtFDiJQvgs-29" edge="1">
          <mxGeometry width="50" height="50" relative="1" as="geometry">
            <mxPoint x="266.6" y="620" as="sourcePoint" />
            <mxPoint x="316.6" y="570" as="targetPoint" />
          </mxGeometry>
        </mxCell>
        <mxCell id="4zfVuzfaXlXtFDiJQvgs-42" value="" style="endArrow=none;html=1;rounded=0;entryX=1;entryY=1;entryDx=0;entryDy=0;exitX=0.25;exitY=0;exitDx=0;exitDy=0;fontFamily=Google Sans;fontSource=https%3A%2F%2Ffonts.googleapis.com%2Fcss%3Ffamily%3DGoogle%2BSans;" parent="1" source="4zfVuzfaXlXtFDiJQvgs-30" target="4zfVuzfaXlXtFDiJQvgs-29" edge="1">
          <mxGeometry width="50" height="50" relative="1" as="geometry">
            <mxPoint x="266.6" y="620" as="sourcePoint" />
            <mxPoint x="316.6" y="570" as="targetPoint" />
          </mxGeometry>
        </mxCell>
        <mxCell id="4zfVuzfaXlXtFDiJQvgs-43" value="&lt;font size=&quot;1&quot; style=&quot;&quot; data-font-src=&quot;https://fonts.googleapis.com/css?family=Google+Sans&quot;&gt;&lt;b style=&quot;font-size: 8px;&quot;&gt;vrf1&lt;/b&gt;&lt;/font&gt;" style="text;strokeColor=none;align=center;fillColor=none;html=1;verticalAlign=middle;whiteSpace=wrap;rounded=0;fontSize=5;fontFamily=Google Sans;fontSource=https%3A%2F%2Ffonts.googleapis.com%2Fcss%3Ffamily%3DGoogle%2BSans;" parent="1" vertex="1">
          <mxGeometry x="281.1" y="535" width="51" height="10" as="geometry" />
        </mxCell>
        <mxCell id="4zfVuzfaXlXtFDiJQvgs-44" value="&lt;font color=&quot;#0000ff&quot; style=&quot;font-size: 7px;&quot; data-font-src=&quot;https://fonts.googleapis.com/css?family=Google+Sans&quot;&gt;leaf2&lt;/font&gt;" style="text;strokeColor=none;align=center;fillColor=none;html=1;verticalAlign=middle;whiteSpace=wrap;rounded=0;fontSize=5;fontFamily=Google Sans;fontSource=https%3A%2F%2Ffonts.googleapis.com%2Fcss%3Ffamily%3DGoogle%2BSans;" parent="1" vertex="1">
          <mxGeometry x="282" y="520.58" width="51" height="10" as="geometry" />
        </mxCell>
        <mxCell id="4zfVuzfaXlXtFDiJQvgs-45" value="&lt;font color=&quot;#ffffff&quot; data-font-src=&quot;https://fonts.googleapis.com/css?family=Google+Sans&quot; style=&quot;font-size: 6px;&quot;&gt;&lt;b style=&quot;&quot;&gt;node3&lt;/b&gt;&lt;/font&gt;" style="text;strokeColor=none;align=center;fillColor=none;html=1;verticalAlign=middle;whiteSpace=wrap;rounded=0;rotation=0;fontFamily=Google Sans;fontSource=https%3A%2F%2Ffonts.googleapis.com%2Fcss%3Ffamily%3DGoogle%2BSans;" parent="1" vertex="1">
          <mxGeometry x="372.4" y="649" width="36" height="4" as="geometry" />
        </mxCell>
        <mxCell id="4zfVuzfaXlXtFDiJQvgs-46" value="&lt;font color=&quot;#ffffff&quot; data-font-src=&quot;https://fonts.googleapis.com/css?family=Google+Sans&quot; style=&quot;font-size: 6px;&quot;&gt;&lt;b style=&quot;&quot;&gt;client3&lt;/b&gt;&lt;/font&gt;" style="text;strokeColor=none;align=center;fillColor=none;html=1;verticalAlign=middle;whiteSpace=wrap;rounded=0;rotation=0;fontFamily=Google Sans;fontSource=https%3A%2F%2Ffonts.googleapis.com%2Fcss%3Ffamily%3DGoogle%2BSans;" parent="1" vertex="1">
          <mxGeometry x="434.70000000000005" y="639" width="36" height="4" as="geometry" />
        </mxCell>
        <mxCell id="4zfVuzfaXlXtFDiJQvgs-47" value="" style="sketch=0;pointerEvents=1;shadow=0;dashed=0;html=1;strokeColor=none;fillColor=#FFFFFF;aspect=fixed;labelPosition=center;verticalLabelPosition=bottom;verticalAlign=top;align=center;outlineConnect=0;shape=mxgraph.vvd.user_group;fontFamily=Google Sans;fontSource=https%3A%2F%2Ffonts.googleapis.com%2Fcss%3Ffamily%3DGoogle%2BSans;" parent="1" vertex="1">
          <mxGeometry x="443" y="611.0000000000001" width="19.4" height="27.33" as="geometry" />
        </mxCell>
        <mxCell id="4zfVuzfaXlXtFDiJQvgs-48" value="" style="whiteSpace=wrap;html=1;rounded=1;fontFamily=Google Sans;fontSource=https%3A%2F%2Ffonts.googleapis.com%2Fcss%3Ffamily%3DGoogle%2BSans;" parent="1" vertex="1">
          <mxGeometry x="379" y="580" width="45" height="9.67" as="geometry" />
        </mxCell>
        <mxCell id="4zfVuzfaXlXtFDiJQvgs-49" value="" style="ellipse;whiteSpace=wrap;html=1;fontFamily=Google Sans;fontSource=https%3A%2F%2Ffonts.googleapis.com%2Fcss%3Ffamily%3DGoogle%2BSans;" parent="1" vertex="1">
          <mxGeometry x="413" y="520" width="40" height="40" as="geometry" />
        </mxCell>
        <mxCell id="4zfVuzfaXlXtFDiJQvgs-50" value="" style="whiteSpace=wrap;html=1;rounded=1;fontFamily=Google Sans;fontSource=https%3A%2F%2Ffonts.googleapis.com%2Fcss%3Ffamily%3DGoogle%2BSans;" parent="1" vertex="1">
          <mxGeometry x="444" y="580" width="45" height="9.67" as="geometry" />
        </mxCell>
        <mxCell id="4zfVuzfaXlXtFDiJQvgs-51" value="&lt;font style=&quot;font-size: 5px;&quot; data-font-src=&quot;https://fonts.googleapis.com/css?family=Google+Sans&quot;&gt;192.168.1.0/24&lt;/font&gt;" style="text;strokeColor=none;align=center;fillColor=none;html=1;verticalAlign=middle;whiteSpace=wrap;rounded=0;fontSize=5;fontFamily=Google Sans;fontSource=https%3A%2F%2Ffonts.googleapis.com%2Fcss%3Ffamily%3DGoogle%2BSans;" parent="1" vertex="1">
          <mxGeometry x="377" y="580" width="51" height="10" as="geometry" />
        </mxCell>
        <mxCell id="4zfVuzfaXlXtFDiJQvgs-52" value="&lt;font style=&quot;font-size: 5px;&quot; data-font-src=&quot;https://fonts.googleapis.com/css?family=Google+Sans&quot;&gt;192.168.2.0/24&lt;/font&gt;" style="text;strokeColor=none;align=center;fillColor=none;html=1;verticalAlign=middle;whiteSpace=wrap;rounded=0;fontSize=5;fontFamily=Google Sans;fontSource=https%3A%2F%2Ffonts.googleapis.com%2Fcss%3Ffamily%3DGoogle%2BSans;" parent="1" vertex="1">
          <mxGeometry x="442" y="580" width="52" height="10.16" as="geometry" />
        </mxCell>
        <mxCell id="4zfVuzfaXlXtFDiJQvgs-53" value="" style="endArrow=none;html=1;rounded=0;fontFamily=Google Sans;fontSource=https%3A%2F%2Ffonts.googleapis.com%2Fcss%3Ffamily%3DGoogle%2BSans;" parent="1" source="4zfVuzfaXlXtFDiJQvgs-54" edge="1">
          <mxGeometry width="50" height="50" relative="1" as="geometry">
            <mxPoint x="391" y="600" as="sourcePoint" />
            <mxPoint x="390.96000000000004" y="590" as="targetPoint" />
          </mxGeometry>
        </mxCell>
        <mxCell id="4zfVuzfaXlXtFDiJQvgs-54" value="" style="fontColor=#0066CC;verticalAlign=top;verticalLabelPosition=bottom;labelPosition=center;align=center;html=1;outlineConnect=0;fillColor=#CCCCCC;strokeColor=#6881B3;gradientColor=none;gradientDirection=north;strokeWidth=2;shape=mxgraph.networks.server;fontFamily=Google Sans;fontSource=https%3A%2F%2Ffonts.googleapis.com%2Fcss%3Ffamily%3DGoogle%2BSans;" parent="1" vertex="1">
          <mxGeometry x="376" y="609" width="30" height="40" as="geometry" />
        </mxCell>
        <mxCell id="4zfVuzfaXlXtFDiJQvgs-55" value="" style="sketch=0;html=1;dashed=0;whitespace=wrap;fillColor=#2875E2;strokeColor=#ffffff;points=[[0.005,0.63,0],[0.1,0.2,0],[0.9,0.2,0],[0.5,0,0],[0.995,0.63,0],[0.72,0.99,0],[0.5,1,0],[0.28,0.99,0]];verticalLabelPosition=bottom;align=center;verticalAlign=top;shape=mxgraph.kubernetes.icon;prIcon=node;fontFamily=Google Sans;fontSource=https%3A%2F%2Ffonts.googleapis.com%2Fcss%3Ffamily%3DGoogle%2BSans;" parent="1" vertex="1">
          <mxGeometry x="381.20000000000005" y="630" width="19.6" height="19" as="geometry" />
        </mxCell>
        <mxCell id="4zfVuzfaXlXtFDiJQvgs-56" value="" style="endArrow=none;html=1;rounded=0;fontFamily=Google Sans;fontSource=https%3A%2F%2Ffonts.googleapis.com%2Fcss%3Ffamily%3DGoogle%2BSans;" parent="1" source="4zfVuzfaXlXtFDiJQvgs-47" edge="1">
          <mxGeometry width="50" height="50" relative="1" as="geometry">
            <mxPoint x="453" y="619.67" as="sourcePoint" />
            <mxPoint x="453" y="589.67" as="targetPoint" />
          </mxGeometry>
        </mxCell>
        <mxCell id="4zfVuzfaXlXtFDiJQvgs-57" value="&lt;font color=&quot;#ffffff&quot;&gt;.1&lt;/font&gt;" style="text;strokeColor=none;align=center;fillColor=none;html=1;verticalAlign=middle;whiteSpace=wrap;rounded=0;fontSize=5;fontFamily=Google Sans;fontSource=https%3A%2F%2Ffonts.googleapis.com%2Fcss%3Ffamily%3DGoogle%2BSans;" parent="1" vertex="1">
          <mxGeometry x="378" y="588" width="20" height="10" as="geometry" />
        </mxCell>
        <mxCell id="4zfVuzfaXlXtFDiJQvgs-58" value="&lt;font color=&quot;#ffffff&quot;&gt;.13&lt;/font&gt;" style="text;strokeColor=none;align=center;fillColor=none;html=1;verticalAlign=middle;whiteSpace=wrap;rounded=0;fontSize=5;fontFamily=Google Sans;fontSource=https%3A%2F%2Ffonts.googleapis.com%2Fcss%3Ffamily%3DGoogle%2BSans;" parent="1" vertex="1">
          <mxGeometry x="378" y="601" width="20" height="10" as="geometry" />
        </mxCell>
        <mxCell id="4zfVuzfaXlXtFDiJQvgs-59" value="&lt;font color=&quot;#ffffff&quot;&gt;.13&lt;/font&gt;" style="text;strokeColor=none;align=center;fillColor=none;html=1;verticalAlign=middle;whiteSpace=wrap;rounded=0;fontSize=5;fontFamily=Google Sans;fontSource=https%3A%2F%2Ffonts.googleapis.com%2Fcss%3Ffamily%3DGoogle%2BSans;" parent="1" vertex="1">
          <mxGeometry x="440.4" y="603" width="20" height="10" as="geometry" />
        </mxCell>
        <mxCell id="4zfVuzfaXlXtFDiJQvgs-60" value="&lt;font color=&quot;#ffffff&quot;&gt;.1&lt;/font&gt;" style="text;strokeColor=none;align=center;fillColor=none;html=1;verticalAlign=middle;whiteSpace=wrap;rounded=0;fontSize=5;fontFamily=Google Sans;fontSource=https%3A%2F%2Ffonts.googleapis.com%2Fcss%3Ffamily%3DGoogle%2BSans;" parent="1" vertex="1">
          <mxGeometry x="440.4" y="588" width="20" height="10" as="geometry" />
        </mxCell>
        <mxCell id="4zfVuzfaXlXtFDiJQvgs-61" value="" style="endArrow=none;html=1;rounded=0;entryX=0;entryY=1;entryDx=0;entryDy=0;exitX=0.75;exitY=0;exitDx=0;exitDy=0;fontFamily=Google Sans;fontSource=https%3A%2F%2Ffonts.googleapis.com%2Fcss%3Ffamily%3DGoogle%2BSans;" parent="1" source="4zfVuzfaXlXtFDiJQvgs-48" target="4zfVuzfaXlXtFDiJQvgs-49" edge="1">
          <mxGeometry width="50" height="50" relative="1" as="geometry">
            <mxPoint x="393" y="620" as="sourcePoint" />
            <mxPoint x="443" y="570" as="targetPoint" />
          </mxGeometry>
        </mxCell>
        <mxCell id="4zfVuzfaXlXtFDiJQvgs-62" value="" style="endArrow=none;html=1;rounded=0;entryX=1;entryY=1;entryDx=0;entryDy=0;exitX=0.25;exitY=0;exitDx=0;exitDy=0;fontFamily=Google Sans;fontSource=https%3A%2F%2Ffonts.googleapis.com%2Fcss%3Ffamily%3DGoogle%2BSans;" parent="1" source="4zfVuzfaXlXtFDiJQvgs-50" target="4zfVuzfaXlXtFDiJQvgs-49" edge="1">
          <mxGeometry width="50" height="50" relative="1" as="geometry">
            <mxPoint x="393" y="620" as="sourcePoint" />
            <mxPoint x="443" y="570" as="targetPoint" />
          </mxGeometry>
        </mxCell>
        <mxCell id="4zfVuzfaXlXtFDiJQvgs-63" value="&lt;font size=&quot;1&quot; style=&quot;&quot; data-font-src=&quot;https://fonts.googleapis.com/css?family=Google+Sans&quot;&gt;&lt;b style=&quot;font-size: 8px;&quot;&gt;vrf1&lt;/b&gt;&lt;/font&gt;" style="text;strokeColor=none;align=center;fillColor=none;html=1;verticalAlign=middle;whiteSpace=wrap;rounded=0;fontSize=5;fontFamily=Google Sans;fontSource=https%3A%2F%2Ffonts.googleapis.com%2Fcss%3Ffamily%3DGoogle%2BSans;" parent="1" vertex="1">
          <mxGeometry x="407.5" y="535" width="51" height="10" as="geometry" />
        </mxCell>
        <mxCell id="4zfVuzfaXlXtFDiJQvgs-64" value="&lt;font color=&quot;#0000ff&quot; style=&quot;font-size: 7px;&quot; data-font-src=&quot;https://fonts.googleapis.com/css?family=Google+Sans&quot;&gt;leaf3&lt;/font&gt;" style="text;strokeColor=none;align=center;fillColor=none;html=1;verticalAlign=middle;whiteSpace=wrap;rounded=0;fontSize=5;fontFamily=Google Sans;fontSource=https%3A%2F%2Ffonts.googleapis.com%2Fcss%3Ffamily%3DGoogle%2BSans;" parent="1" vertex="1">
          <mxGeometry x="408" y="520.58" width="51" height="10" as="geometry" />
        </mxCell>
        <mxCell id="4zfVuzfaXlXtFDiJQvgs-66" value="&lt;font color=&quot;#ffffff&quot; data-font-src=&quot;https://fonts.googleapis.com/css?family=Google+Sans&quot; style=&quot;font-size: 6px;&quot;&gt;&lt;b style=&quot;&quot;&gt;client4&lt;/b&gt;&lt;/font&gt;" style="text;strokeColor=none;align=center;fillColor=none;html=1;verticalAlign=middle;whiteSpace=wrap;rounded=0;rotation=0;fontFamily=Google Sans;fontSource=https%3A%2F%2Ffonts.googleapis.com%2Fcss%3Ffamily%3DGoogle%2BSans;" parent="1" vertex="1">
          <mxGeometry x="533.3000000000001" y="638.9100000000001" width="36" height="4" as="geometry" />
        </mxCell>
        <mxCell id="4zfVuzfaXlXtFDiJQvgs-67" value="" style="sketch=0;pointerEvents=1;shadow=0;dashed=0;html=1;strokeColor=none;fillColor=#FFFFFF;aspect=fixed;labelPosition=center;verticalLabelPosition=bottom;verticalAlign=top;align=center;outlineConnect=0;shape=mxgraph.vvd.user_group;fontFamily=Google Sans;fontSource=https%3A%2F%2Ffonts.googleapis.com%2Fcss%3Ffamily%3DGoogle%2BSans;" parent="1" vertex="1">
          <mxGeometry x="541.6" y="611.5800000000002" width="19.4" height="27.33" as="geometry" />
        </mxCell>
        <mxCell id="4zfVuzfaXlXtFDiJQvgs-69" value="" style="ellipse;whiteSpace=wrap;html=1;fontFamily=Google Sans;fontSource=https%3A%2F%2Ffonts.googleapis.com%2Fcss%3Ffamily%3DGoogle%2BSans;" parent="1" vertex="1">
          <mxGeometry x="511.6" y="520.58" width="40" height="40" as="geometry" />
        </mxCell>
        <mxCell id="4zfVuzfaXlXtFDiJQvgs-70" value="" style="whiteSpace=wrap;html=1;rounded=1;fontFamily=Google Sans;fontSource=https%3A%2F%2Ffonts.googleapis.com%2Fcss%3Ffamily%3DGoogle%2BSans;" parent="1" vertex="1">
          <mxGeometry x="542.6" y="580.58" width="45" height="9.67" as="geometry" />
        </mxCell>
        <mxCell id="4zfVuzfaXlXtFDiJQvgs-72" value="&lt;font style=&quot;font-size: 5px;&quot; data-font-src=&quot;https://fonts.googleapis.com/css?family=Google+Sans&quot;&gt;192.168.2.0/24&lt;/font&gt;" style="text;strokeColor=none;align=center;fillColor=none;html=1;verticalAlign=middle;whiteSpace=wrap;rounded=0;fontSize=5;fontFamily=Google Sans;fontSource=https%3A%2F%2Ffonts.googleapis.com%2Fcss%3Ffamily%3DGoogle%2BSans;" parent="1" vertex="1">
          <mxGeometry x="540.6" y="579.58" width="52" height="10.16" as="geometry" />
        </mxCell>
        <mxCell id="4zfVuzfaXlXtFDiJQvgs-76" value="" style="endArrow=none;html=1;rounded=0;fontFamily=Google Sans;fontSource=https%3A%2F%2Ffonts.googleapis.com%2Fcss%3Ffamily%3DGoogle%2BSans;" parent="1" source="4zfVuzfaXlXtFDiJQvgs-67" edge="1">
          <mxGeometry width="50" height="50" relative="1" as="geometry">
            <mxPoint x="551.6" y="620.25" as="sourcePoint" />
            <mxPoint x="551.6" y="590.25" as="targetPoint" />
          </mxGeometry>
        </mxCell>
        <mxCell id="4zfVuzfaXlXtFDiJQvgs-79" value="&lt;font color=&quot;#ffffff&quot;&gt;.14&lt;/font&gt;" style="text;strokeColor=none;align=center;fillColor=none;html=1;verticalAlign=middle;whiteSpace=wrap;rounded=0;fontSize=5;fontFamily=Google Sans;fontSource=https%3A%2F%2Ffonts.googleapis.com%2Fcss%3Ffamily%3DGoogle%2BSans;" parent="1" vertex="1">
          <mxGeometry x="538" y="603.58" width="20" height="10" as="geometry" />
        </mxCell>
        <mxCell id="4zfVuzfaXlXtFDiJQvgs-80" value="&lt;font color=&quot;#ffffff&quot;&gt;.1&lt;/font&gt;" style="text;strokeColor=none;align=center;fillColor=none;html=1;verticalAlign=middle;whiteSpace=wrap;rounded=0;fontSize=5;fontFamily=Google Sans;fontSource=https%3A%2F%2Ffonts.googleapis.com%2Fcss%3Ffamily%3DGoogle%2BSans;" parent="1" vertex="1">
          <mxGeometry x="539" y="588.58" width="20" height="10" as="geometry" />
        </mxCell>
        <mxCell id="4zfVuzfaXlXtFDiJQvgs-82" value="" style="endArrow=none;html=1;rounded=0;entryX=1;entryY=1;entryDx=0;entryDy=0;exitX=0.25;exitY=0;exitDx=0;exitDy=0;fontFamily=Google Sans;fontSource=https%3A%2F%2Ffonts.googleapis.com%2Fcss%3Ffamily%3DGoogle%2BSans;" parent="1" source="4zfVuzfaXlXtFDiJQvgs-70" target="4zfVuzfaXlXtFDiJQvgs-69" edge="1">
          <mxGeometry width="50" height="50" relative="1" as="geometry">
            <mxPoint x="491.6" y="620.58" as="sourcePoint" />
            <mxPoint x="541.6" y="570.58" as="targetPoint" />
          </mxGeometry>
        </mxCell>
        <mxCell id="4zfVuzfaXlXtFDiJQvgs-83" value="&lt;font size=&quot;1&quot; style=&quot;&quot; data-font-src=&quot;https://fonts.googleapis.com/css?family=Google+Sans&quot;&gt;&lt;b style=&quot;font-size: 8px;&quot;&gt;vrf1&lt;/b&gt;&lt;/font&gt;" style="text;strokeColor=none;align=center;fillColor=none;html=1;verticalAlign=middle;whiteSpace=wrap;rounded=0;fontSize=5;fontFamily=Google Sans;fontSource=https%3A%2F%2Ffonts.googleapis.com%2Fcss%3Ffamily%3DGoogle%2BSans;" parent="1" vertex="1">
          <mxGeometry x="506.1" y="535.58" width="51" height="10" as="geometry" />
        </mxCell>
        <mxCell id="4zfVuzfaXlXtFDiJQvgs-84" value="&lt;font color=&quot;#0000ff&quot; style=&quot;font-size: 7px;&quot; data-font-src=&quot;https://fonts.googleapis.com/css?family=Google+Sans&quot;&gt;leaf4&lt;/font&gt;" style="text;strokeColor=none;align=center;fillColor=none;html=1;verticalAlign=middle;whiteSpace=wrap;rounded=0;fontSize=5;fontFamily=Google Sans;fontSource=https%3A%2F%2Ffonts.googleapis.com%2Fcss%3Ffamily%3DGoogle%2BSans;" parent="1" vertex="1">
          <mxGeometry x="506.1" y="521.58" width="51" height="10" as="geometry" />
        </mxCell>
        <mxCell id="4zfVuzfaXlXtFDiJQvgs-92" value="" style="whiteSpace=wrap;html=1;rounded=1;fontFamily=Google Sans;fontSource=https%3A%2F%2Ffonts.googleapis.com%2Fcss%3Ffamily%3DGoogle%2BSans;" parent="1" vertex="1">
          <mxGeometry x="157" y="480" width="389" height="20" as="geometry" />
        </mxCell>
        <mxCell id="4zfVuzfaXlXtFDiJQvgs-93" value="&lt;font data-font-src=&quot;https://fonts.googleapis.com/css?family=Google+Sans&quot;&gt;Underlay (VXLAN)&lt;/font&gt;" style="text;strokeColor=none;align=center;fillColor=none;html=1;verticalAlign=middle;whiteSpace=wrap;rounded=0;fontFamily=Google Sans;fontSource=https%3A%2F%2Ffonts.googleapis.com%2Fcss%3Ffamily%3DGoogle%2BSans;" parent="1" vertex="1">
          <mxGeometry x="278.1" y="474" width="151" height="30" as="geometry" />
        </mxCell>
        <mxCell id="4zfVuzfaXlXtFDiJQvgs-98" value="" style="endArrow=none;html=1;rounded=0;entryX=0.5;entryY=0;entryDx=0;entryDy=0;exitX=0.709;exitY=0.992;exitDx=0;exitDy=0;exitPerimeter=0;fontFamily=Google Sans;fontSource=https%3A%2F%2Ffonts.googleapis.com%2Fcss%3Ffamily%3DGoogle%2BSans;" parent="1" source="4zfVuzfaXlXtFDiJQvgs-92" target="4zfVuzfaXlXtFDiJQvgs-49" edge="1">
          <mxGeometry width="50" height="50" relative="1" as="geometry">
            <mxPoint x="390" y="600" as="sourcePoint" />
            <mxPoint x="440" y="550" as="targetPoint" />
          </mxGeometry>
        </mxCell>
        <mxCell id="4zfVuzfaXlXtFDiJQvgs-99" value="" style="endArrow=none;html=1;rounded=0;entryX=0.5;entryY=0;entryDx=0;entryDy=0;exitX=0.951;exitY=1.014;exitDx=0;exitDy=0;exitPerimeter=0;fontFamily=Google Sans;fontSource=https%3A%2F%2Ffonts.googleapis.com%2Fcss%3Ffamily%3DGoogle%2BSans;" parent="1" source="4zfVuzfaXlXtFDiJQvgs-92" target="4zfVuzfaXlXtFDiJQvgs-69" edge="1">
          <mxGeometry width="50" height="50" relative="1" as="geometry">
            <mxPoint x="390" y="600" as="sourcePoint" />
            <mxPoint x="440" y="550" as="targetPoint" />
          </mxGeometry>
        </mxCell>
        <mxCell id="4zfVuzfaXlXtFDiJQvgs-100" value="" style="endArrow=none;html=1;rounded=0;exitX=0.5;exitY=0;exitDx=0;exitDy=0;fontFamily=Google Sans;fontSource=https%3A%2F%2Ffonts.googleapis.com%2Fcss%3Ffamily%3DGoogle%2BSans;" parent="1" source="4zfVuzfaXlXtFDiJQvgs-29" edge="1">
          <mxGeometry width="50" height="50" relative="1" as="geometry">
            <mxPoint x="320" y="540" as="sourcePoint" />
            <mxPoint x="307" y="500" as="targetPoint" />
          </mxGeometry>
        </mxCell>
      </root>
    </mxGraphModel>
  </diagram>
</mxfile>
